<svg version="1.2" baseProfile="tiny-ps" xmlns="http://www.w3.org/2000/svg" viewBox="0 0 500 500" width="512" height="512">
	<title>BuzzERP Logo</title>
	<style>
		tspan { white-space:pre }
		.shp0 { fill: #38b6ff } 
		.shp1 { fill: #c9e165 } 
		.shp2 { fill: #febd59 } 
		.shp3 { fill: #00c2cb } 
		.shp4 { fill: #ff5757 } 
	</style>
	<path id="Layer 2" class="shp0" d="M48 69C48 57.95 56.95 49 68 49L239 49L239 240L48 240L48 69Z" />
	<path id="Layer 2 copy" class="shp1" d="M256 49L427 49C438.05 49 447 57.95 447 69L447 240L256 240L256 49Z" />
	<path id="Layer 2 copy 2" class="shp2" d="M48 257L239 257L239 448L68 448C56.95 448 48 439.05 48 428L48 257Z" />
	<path id="Layer 2 copy 3" class="shp3" d="M257 256L448 256L448 427C448 438.05 439.05 447 428 447L257 447L257 256Z" />
	<path id="Shape 1" class="shp4" d="M119.5 119.81C121.5 120.31 246.5 85 378 119.81C413.5 286.81 375.5 386.63 379.5 381.31C351 384.13 231 403.81 119.5 379.81C101 289.81 105 197.31 118 123.31" />
	<path id="BUZZ" fill="#ffffff" aria-label="BUZZ"  d="M163.53 204.01Q166.17 204.77 167.35 206.28Q168.57 207.75 168.57 210.15Q168.57 214.39 165.08 216.36Q161.64 218.29 154.75 218.29Q150.93 218.29 145.72 218L146.14 210.02L145.72 190.83L157.86 190.78Q162.48 190.78 165.08 192.59Q167.69 194.35 167.69 197.76Q167.69 199.86 166.59 201.49Q165.54 203.09 163.53 204.01ZM159.12 198.97Q159.12 197.5 158.07 196.96Q157.06 196.37 154.25 196.37L153.87 196.37L153.7 201.91L156.85 202.04Q158.03 201.66 158.57 200.95Q159.12 200.23 159.12 198.97ZM156.35 212.75Q158.07 212.75 159.03 211.99Q160.04 211.24 160.04 209.81Q160.04 208.84 159.45 208.26Q158.91 207.67 157.65 207.25L153.57 207.33L153.53 209.18L153.66 212.58Q155.76 212.75 156.35 212.75ZM195.11 190.83L194.82 204.6L194.78 208.93Q194.73 213.55 191.67 216.03Q188.6 218.5 182.89 218.5Q177.39 218.5 174.45 216.03Q171.55 213.55 171.68 208.93L171.8 204.6L171.55 190.83L179.99 190.83L179.61 207.79Q179.57 209.94 180.41 210.9Q181.29 211.87 183.23 211.87Q185.2 211.87 186.08 210.9Q186.96 209.94 186.92 207.79L186.54 190.83L195.11 190.83ZM219.64 190.78L219.64 196.83L208.09 211.78L214.85 211.78L220.02 211.41L220.27 211.78L219.6 218.21L212.12 218L202.46 218L198.22 218.25L198.22 212.25L209.98 197.04L203.39 197.04L198.35 197.46L198.05 197.13L198.64 190.7L204.94 190.83L216.45 190.83L219.64 190.78ZM243.58 190.78L243.58 196.83L232.03 211.78L238.79 211.78L243.96 211.41L244.21 211.78L243.54 218.21L236.06 218L226.4 218L222.16 218.25L222.16 212.25L233.92 197.04L227.33 197.04L222.29 197.46L221.99 197.13L222.58 190.7L228.88 190.83L240.39 190.83L243.58 190.78Z" />
	<path id="ERP" fill="#ffffff" aria-label="ERP"  d="M202.72 302L145.69 302L145.69 222.47L202.39 222.47L202.28 238.09L164.55 238.09L164.55 254.31L196.73 254.31L196.73 269.61L164.44 269.61L164.44 286.21L202.72 286.27L202.72 302ZM266.08 269.94L280.44 302L261.19 302L248.92 272.96L235.28 272.96L235.28 302L216.53 302L216.53 222.47L251.34 222.47Q261.3 222.47 267.46 225.72Q273.62 228.91 276.48 234.51Q279.34 240.07 279.34 247.16Q279.34 253.38 277.58 257.73Q275.82 262.01 272.79 264.99Q269.82 267.9 266.08 269.94ZM235.28 258.82L248.76 258.82Q254.04 258.82 257.23 255.47Q260.47 252.12 260.47 247.5Q260.47 242.66 257.17 239.57Q253.87 236.5 249.31 236.5L235.28 236.5L235.28 258.82ZM312.83 302L294.02 302L294.02 222.47L324.44 222.47Q333.13 222.47 340.11 225.55Q347.1 228.63 351.11 234.57Q355.18 240.45 355.18 248.98Q355.18 256.85 351.66 262.51Q348.2 268.12 341.82 271.14Q335.49 274.12 326.86 274.12L312.83 274.12L312.83 302ZM312.67 236.55L312.67 259.93L326.31 259.93Q331.31 259.93 334.56 256.4Q337.86 252.83 337.86 247.99Q337.86 242.99 334.34 239.8Q330.87 236.55 326.14 236.55L312.67 236.55Z" />
</svg>